<?xml version="1.0" encoding="UTF-8"?>
<svg version="1.1" viewBox="0 0 1440 1440" width="1280" height="1280" xmlns="http://www.w3.org/2000/svg">
<path transform="translate(0)" d="m0 0h1440v1440h-1440z" fill="#FCFCFC"/>
<path transform="translate(826,293)" d="m0 0h16l54 5 83 10h18l15-4 13-3 16 1 10 4 9 7 7 10 4 11 2 15v22l4 53 5 31 11 23 14 27 25 51 15 33 15 34 17 41 11 28 10 26 17 47 12 36 14 44 13 49 7 21 8 14 9 11 9 10 11 9 10 8 20 15 14 11 20 18 6 5 6 8 5 20-1 8-6 18-7 8-10 6-7 3-9 1h-10l-12-3-26-10-24-7-46-9-12-1h-62l-27 2-32 5-21 7-19 9-11 7-14 9-6 2h-18l-12-4-9-7-4-5-7-21v-12l2-13 5-9 9-8 19-14 10-9 8-7 12-11 5-9 2-7 1-13-2-21-5-32-14-43-12-35-17-43-11-26-17-36-11-23-10-18-14-25-8-14-9-10-5-3-5 1-11 7-5 2-13 1-12-2-11-6-10-7-6-4 7 11 5 12 2 8v11l-3 22-6 27-12 44-6 23-2 15v27l4 17 6 17 9 20 16 34 14 33 12 31v16l-4 15-8 16-8 10-10 9-10 10-8 7-12 12-8 7-9 9-8 7-9 9-8 7-9 9-8 7-16 15-11 9-9 6h-13l-14-1-11-7-7-8-7-14-3-15-8-55-9-44-9-40-18-68-17-54-10-32-14-39-16-40-17-38-18-36-10-17-12-19-14-19-12-13-11-11-13-9-9-5-4-1-3 9-7 14-11 18-8 11-10 8-12 5-10 2h-8l-7-2 5 5 9 7 8 9 5 10 1 4v12l-3 12-12 23-12 22-13 26-13 29-11 28-8 22-8 28-6 26-4 27-1 13v20l3 27 5 3 16 5 8 5 5 4 7 10 4 11 1 6v15l-3 13-7 12-8 7-9 4-7 2h-10l-20-2-20-1h-17l-25 2-30 5-21 6-16 6-16 8-14 8-19 13-10 4-9 1-14-3-9-6-5-5-4-5-5-10-2-8v-15l3-13 6-11 8-7 21-12 14-10 11-10 6-5 7-8 10-13 12-17 14-22 13-21 6-12 11-30 16-43 17-46 12-33 13-40 28-84 5-10 5-5 8-6 5-2 16-2 9 3-5-5-7-5v-2l-4-2-7-10-4-11v-11l4-10 10-19 10-22 10-27 9-32 1-12-2-15-5-9-8-7-12-6-16-4-19-4-8-5-5-6-2-7v-12l4-12 7-12 11-13 13-10 13-6h20l34 3 37 2h59l38-3h13l11 4 14 8 12 11 11 12 12 16 10 14 15 23 12 20 8 13 12 21 14 25 26 46 16 29 13 23 12 21 9 16h2l12-28 7-9 10-7 6-2h16l10 3 11 7 13 12-6-11-5-10-2-11 1-9 3-10 8-11 12-14 10-12 13-18 14-22 9-15v-10l-5-15-7-11-9-8-17-12-22-15-11-8-7-7-5-10-2-9v-8l3-14 6-12 11-12 10-6z" fill="#010101"/>
<path transform="translate(690,60)" d="m0 0h56l43 3 34 5 27 5 44 11 32 10 29 11 25 11 33 16 25 14 21 13 28 19 16 12 14 11 13 11 8 7 11 10 8 7 29 29 7 8 12 14 11 13 10 13 12 16 16 24 12 19 10 17 15 28 13 27 12 29 9 24 10 30 9 35 6 27 6 34 4 36 2 32v47l-2 41-5 41-5 29-9 40-12 41-2 7-5-2-12-11-6-5-9-12-5-12-4-13-13-48-17-54-2-7 2-56-2-46-3-25-6-38-12-48-11-33-8-21-12-26-8-18-12-21-15-25-14-20-13-18-11-13-12-14-11-13-3-6-6-20-8-15-11-12-10-7-13-6-9-2-19-2-11-7-12-8-16-10-36-20-33-15-35-13-39-11-38-8-39-5-31-2h-33l-32 2-39 5-38 8-22 6-29 9-34 14-25 12-22 11-38 24-19 14-15 11-4 1-44-4h-22l-18 6-11 6-10 8-10 9-8 9-7 10-8 15-5 15-1 6v17l3 12 7 14 9 10 5 3-1 5-14 25-12 23-9 19-13 32-14 43-9 37-6 35-4 38-1 20v38l2 33 4 31 1 6v8l-18 48-14 36-9 16-8 13-7 11-12 18h-3l-12-36-8-27-11-48-6-35-3-26-2-30v-69l2-30 4-34 8-44 7-30 10-34 10-29 13-32 12-26 13-26 13-23 13-21 13-19 12-17 11-14 8-10 9-11 9-10 7-8 14-15 25-25 8-7 14-12 13-11 16-12 19-14 23-15 15-9 19-11 23-12 29-14 33-13 36-12 29-8 36-8 38-6 30-3z" fill="#010101"/>
<path transform="translate(1147,1091)" d="m0 0h56l23 2 19 3v4l-10 14-12 16-13 16-9 11-11 12-7 8-8 8-5 6-8 7-14 14h-2v2l-8 7-13 11-11 9-17 13-18 13-29 19-19 11-16 9-25 13-27 12-20 8-34 12-36 10-35 8-45 7-33 3-30 1h-18l-31-1-43-4-37-6-43-10-34-10-35-13-31-13-36-18-24-14-26-16-17-12-19-14-16-13-14-12-11-9-13-13-8-7-12-12v-2h-2l-7-8-12-13-9-11-10-12-13-17-6-7v-3l23-5 18-2h52l12 1h27l8 7 8 8 8 7 12 12 11 9 16 13 16 12 18 12 17 11 19 11 38 19 25 10 29 11 23 7 40 9 25 4 37 4h68l44-5 29-5 33-8 35-11 28-11 18-8 19-9 20-11 18-11 34-23 16-13 11-9 16-13 38-38 12-2z" fill="#010101"/>
</svg>
